<svg xmlns="http://www.w3.org/2000/svg" xmlns:xlink="http://www.w3.org/1999/xlink" width="100%" height="100%" viewBox="-0.07560057193040848 -0.000012530395906651393 1050.1512451171875 460.0000305175781" preserveAspectRatio="xMinYMin meet" ><rect id="svgEditorBackground" x="0" y="0" width="1050" height="460" style="fill:none; stroke: none;cursor:crosshair;"/><path d="M2.787987-0.608151v-1.5a2,2,0,0,0,-2-2h-4a2,2,0,0,0,-2,2v3a2,2,0,0,0,2,2h4a2,2,0,0,0,2-2Z" style="fill:white; stroke:black; vector-effect:non-scaling-stroke;stroke-width:1px;" id="e2_shape" transform="matrix(33.6512, 0.24956, -0.104025, 13.8362, 183.934, 98.7602)"/><rect x="16.675982" y="143.219574" style="fill:none;stroke:black;stroke-width:1px;" id="e5_rectangle" width="258.272797" height="174.027100"/><rect x="17.156332" y="223.438095" style="fill:white;stroke:black;stroke-width:1px;" id="e6_rectangle" width="257.561707" height="46.965298"/><path d="M217.256668,236.609993l-13.909,19.87l27.819,0.994Z" style="fill:lightyellow;stroke:black;stroke-width:1px;" id="newmsg#3#1#1_p" class="groups" transform="matrix(1, 0, 0, 1, -7.82711, -0.496745)"/><path d="M253.008941,237.603513l-13.909,19.87l27.819,0.994Z" style="fill:pink;stroke:black;stroke-width:1px;" id="newmsg#3#1#1_q" class="groups" transform="matrix(1, 0, 0, 1, -4.85299, -1.49028)"/><text style="fill:black;font-family:Arial;font-size:14px;" x="141.273" y="252.507" id="newmsg#3#1#2" transform="matrix(1, 0, 0, 1, 0.0528221, -0.960879)">R</text><rect x="17.156338" y="270.861816" style="fill:white;stroke:black;stroke-width:1px;" id="e7_rectangle" width="257.558716" height="45.722118" transform="matrix(1, 0, 0, 1, 0, 0)"/><path d="M216.256281,280.283394l-13.909,19.87l27.819,0.994Z" style="fill:lightyellow;stroke:black;stroke-width:1px;" id="newmsg#3#2#1_p" class="groups" transform="matrix(1, 0, 0, 1, -6.82674, 3.00749)"/><path d="M252.037914,281.283781l-13.909,19.87l27.819,0.994Z" style="fill:pink;stroke:black;stroke-width:1px;" id="newmsg#3#2#1_q" class="groups" transform="matrix(1, 0, 0, 1, -3.88198, 2.0071)"/><text style="fill:black;font-family:Arial;font-size:14px;" x="143.523" y="299.658" id="newmsg#3#2#2" transform="matrix(1, 0, 0, 1, -2.19815, -1.2473)">R</text><text style="fill:black;font-family:Arial;font-size:13px;" x="105.694" y="63.4895" id="e10_texte">creator</text><text style="fill:black;font-family:Arial;font-size:13px;" x="201.733" y="80.3135" id="e1_texte">receiver</text><text style="fill:black;font-family:Arial;font-size:13px;" x="27.5563" y="157.129" id="e3_texte" xml:space="preserve">cipher-creator</text><text style="fill:black;font-family:Arial;font-size:13px;" x="205.307" y="154.156" id="e4_texte">public-key</text><text style="fill:black;font-family:Arial;font-size:13px;" x="30.9316" y="216.484" id="e5_texte" transform="matrix(1, 0, 0, 1, 0, 1.49026)">generator</text><text style="fill:black;font-family:Arial;font-size:13px;" x="206.999" y="219.464" id="e6_texte" transform="matrix(1, 0, 0, 1, 0, -1.49026)">forwhom</text><g id="e1_group"/><text style="fill:black;font-family:Arial;font-size:20px;" x="174.642" y="313.221" id="e12_texte"/><g id="e16_group"/><rect x="289.473572" y="19.069223" style="fill:white;stroke:black;stroke-width:1px;" id="__nwM1-all" width="746.296021" height="137.807999"/><text style="fill:black;font-family:Arial;font-size:13px;" x="316.35" y="18.7638" id="e11_texte"/><text style="fill:blue;font-family:Arial;font-size:12px;" x="997.11" y="32.2812" id="e13_texte" transform="matrix(1, 0, 0, 1, 1.25012, 0)">nwM1</text><text style="fill:black;font-family:Arial;font-size:14px;" x="293.887" y="50.999" id="nwM1-all" transform="matrix(1, 0, 0, 1, -0.000488281, 0)">empty</text><text style="fill:black;font-family:Arial;font-size:13px;" x="169.25" y="298.688" id="newmsg#3#2#1_dP" class="groups" transform="matrix(1, 0, 0, 1, 0, -0.902396)">dum</text><text style="fill:black;font-family:Arial;font-size:13px;" x="100.191" y="298.183" id="newmsg#3#2#0_dP" class="groups" transform="matrix(1, 0, 0, 1, 0, -0.396598)">dum</text><rect x="16.574627" y="375.416840" style="fill:white;stroke:black;stroke-width:1px;" id="e1_rectangle" width="259.065094" height="56.3018"/><text style="fill:blue;font-family:Arial;font-size:12px;" x="226.836" y="396.684" id="e7_texte" transform="matrix(1, 0, 0, 1, 0.996681, 0)">nonces</text><text style="fill:black;font-family:Arial;font-size:14px;" x="24.089" y="416.706" id="nonces" transform="matrix(1, 0, 0, 1, 0, 0.644221)">empty</text><rect x="90.375954" y="332.955750" style="fill:white;stroke:black;stroke-width:1px;" id="e3_rectangle" width="101.447998" height="33.788300"/><text style="fill:blue;font-family:Arial;font-size:12px;" x="159.284" y="342.968" id="e9_texte">urand</text><text style="fill:black;font-family:Arial;font-size:14px;" x="94.1773" y="359.236" id="urand" xml:space="preserve" transform="matrix(1, 0, 0, 1, 0, -0.644212)">random</text><circle id="newmsg#0_p" cx="38.173798" cy="67.463150" style="fill:lightyellow;stroke:black;stroke-width:1px;" r="16.000000" class="groups" transform="matrix(1, 0, 0, 1, 0, 0)"/><circle id="newmsg#0_q" cx="72.874702" cy="67.463135" style="fill:pink;stroke:black;stroke-width:1px;" r="16.000000" class="groups" transform="matrix(1, 0, 0, 1, 1.98705, 0)"/><circle id="newmsg#1_p" cx="40.160839" cy="111.815620" style="fill:lightyellow;stroke:black;stroke-width:1px;" r="16.000000" class="groups" transform="matrix(1, 0, 0, 1, -1.98704, 0)"/><path d="M42.1165,234.622952l-13.909,19.87l27.819,0.994Z" style="fill:lightyellow;stroke:black;stroke-width:1px;" id="newmsg#3#1#0_p" class="groups" transform="matrix(1, 0, 0, 1, -3.53334, 1.49028)"/><path d="M70.895326,235.616472l-13.909,19.87l27.819,0.994Z" style="fill:pink;stroke:black;stroke-width:1px;" id="newmsg#3#1#0_q" class="groups" transform="matrix(1, 0, 0, 1, 8.55682, 0.496785)"/><path d="M47.096093,282.277402l-13.909,19.87l27.819,0.994Z" style="fill:lightyellow;stroke:black;stroke-width:1px;" id="newmsg#3#2#0_p" class="groups" transform="matrix(1, 0, 0, 1, -8.51294, 1.01347)"/><path d="M75.87555,281.2832l-13.909,19.87l27.819,0.994Z" style="fill:pink;stroke:black;stroke-width:1px;" id="newmsg#3#2#0_q" class="groups" transform="matrix(1, 0, 0, 1, 3.57658, 2.00768)"/><circle id="newmsg#2_p" cx="209.020172" cy="108.835045" style="fill:lightyellow;stroke:black;stroke-width:1px;" r="16.000000" class="groups" transform="matrix(1, 0, 0, 1, 0, 0)"/><circle id="newmsg#2_q" cx="247.746567" cy="108.835045" style="fill:pink;stroke:black;stroke-width:1px;" r="16.000000" class="groups" transform="matrix(1, 0, 0, 1, 0, 0)"/><text style="fill:black;font-family:Arial;font-size:13px;" x="106.687" y="114.797" id="e2_texte">sender</text><circle id="newmsg#1_q" cx="74.861748" cy="111.815620" style="fill:pink;stroke:black;stroke-width:1px;" r="16.000000" class="groups" transform="matrix(1, 0, 0, 1, 0, 0)"/><rect x="202.370895" y="164.097214" style="fill:lightyellow;stroke:black;stroke-width:1px;" id="newmsg#3#0_p" width="30.000000" height="30.000000" class="groups" transform="matrix(1, 0, 0, 1, -6.85035, 2.36507)"/><rect x="238.115036" y="165.090775" style="fill:pink;stroke:black;stroke-width:1px;" id="newmsg#3#0_q" width="30.000000" height="30.000000" class="groups" transform="matrix(1, 0, 0, 1, -3.86811, 1.37151)"/><text style="fill:black;font-family:Arial;font-size:13px;" x="100.206" y="184.238" id="newmsg#3#3_dP" class="groups"><tspan x="100.206">none</tspan></text><rect x="29.511703" y="167.833755" style="fill:lightyellow;stroke:black;stroke-width:1px;" id="newmsg#3#3_p" width="30.000000" height="30.000000" class="groups" transform="matrix(1, 0, 0, 1, -4.83754, -1.37148)"/><rect x="60.269997" y="168.827347" style="fill:pink;stroke:black;stroke-width:1px;" id="newmsg#3#3_q" width="30.000000" height="30.000000" class="groups" transform="matrix(1, 0, 0, 1, 3.09214, -2.36507)"/><rect x="31.801155" y="16.8825" style="fill:lightgray;stroke:black;stroke-width:1px;" width="15.006770" height="14.998565" transform="matrix(1, 0, 0, 1, -0.0368624, 2.18247)" id="e1_empM1"/><rect x="135.576" y="16.2538" style="fill:lightgray;stroke:black;stroke-width:1px;" id="e2_empM2" width="15.006800" height="14.998600" transform="matrix(1, 0, 0, 1, 4.83831, 2.81112)"/><rect x="243.095917" y="17.5088" style="fill:lightgray;stroke:black;stroke-width:1px;" id="e3_empM3" width="15.006800" height="14.998600" transform="matrix(1, 0, 0, 1, -0.694546, 1.55619)"/><rect x="289.473541" y="156.588959" style="fill:white;stroke:black;stroke-width:1px;" id="__nwM2-all" width="746.296021" height="137.807999"/><rect x="289.473602" y="294.108826" style="fill:white;stroke:black;stroke-width:1px;" id="__nwM3-all" width="746.296021" height="137.807999"/><text style="fill:blue;font-family:Arial;font-size:12px;" x="998.36" y="168.551" id="e8_texte" transform="matrix(1, 0, 0, 1, 0, 0)">nwM2</text><text style="fill:blue;font-family:Arial;font-size:12px;" x="998.36" y="308.571" id="e14_texte" transform="matrix(1, 0, 0, 1, 0.000183105, 0)">nwM3</text><text style="fill:black;font-family:Arial;font-size:14px;" x="293.887" y="183.518" id="nwM2-all" transform="matrix(1, 0, 0, 1, 0, 0)">empty</text><text style="fill:black;font-family:Arial;font-size:14px;" x="296.387" y="321.038" id="nwM3-all" transform="matrix(1, 0, 0, 1, -2.50037, 0)">empty</text><rect x="28.664986" y="15.6275" style="fill:#cfeff3;stroke:none;stroke-width:1px;" id="m1_empM1" width="19.390772" height="18.756290" class="groups" transform="matrix(1, 0, 0, 1, 0.907308, 1.55856)"/><rect x="137.012" y="11.2436" style="fill:#cfeff3;stroke:none;stroke-width:1px;" id="m2_empM2" width="19.390772" height="18.756290" class="groups" transform="matrix(1, 0, 0, 1, 1.21022, 5.94253)"/><rect x="239.721893" y="13.7487" style="fill:#cfeff3;stroke:none;stroke-width:1px;" id="m3_empM3" width="19.390772" height="18.756290" class="groups" transform="matrix(1, 0, 0, 1, 0.487492, 3.4374)"/><text style="fill:black;font-family:Arial;font-size:12px;" x="31.1802" y="13.7518" id="e15_texte" transform="matrix(1, 0, 0, 1, -0.945052, -1.87508)">m1</text><text style="fill:black;font-family:Arial;font-size:12px;" x="139.946" y="13.7518" id="e16_texte" transform="matrix(1, 0, 0, 1, -1.06082, -1.8751)">m2</text><text style="fill:black;font-family:Arial;font-size:12px;" x="241.211" y="18.7525" id="e17_texte" transform="matrix(1, 0, 0, 1, -0.338089, -6.8758)">m3</text></svg>